<svg id="Layer_1" data-name="Layer 1" xmlns="http://www.w3.org/2000/svg" viewBox="0 0 329.3 50.98"><defs><style>.cls-1{font-size:40px;font-family:BodoniSvtyTwoOSITCTT-Book, "Bodoni 72 Oldstyle";}.cls-1,.cls-5{fill:#e75725;}.cls-2,.cls-4{font-size:30px;}.cls-3,.cls-4{fill:#231f20;}.cls-6{fill:#010101;}</style></defs><text class="cls-1" transform="translate(4.23 35.94)">K<tspan class="cls-2" x="26.64" y="0">ARLA</tspan><tspan class="cls-3" x="97.32" y="0" xml:space="preserve">      G</tspan><tspan class="cls-4" x="168.56" y="0">ERGELOVA</tspan></text><path class="cls-5" d="M120.41,12.15a2.56,2.56,0,0,0-.86-1c-1.29-.87-3.69-.73-4.41-.66a14.78,14.78,0,0,0-7.14,9C110.3,16,114.85,13.24,120.41,12.15Z"/><path class="cls-6" d="M125,7.74a21.53,21.53,0,0,0-7.19,1.5,6.38,6.38,0,0,1,2.8.94A4,4,0,0,1,122,11.89a28.39,28.39,0,0,1,2.95-.24V7.74Z"/><path class="cls-6" d="M134.49,35.24a6.56,6.56,0,0,0,3.11-8.14c-.51-1.6-2-3-3.47-4.5-2.3-2.27-4.9-4.85-5-8.71a4.41,4.41,0,0,1,0-.73c-.86-.11-1.73-.18-2.63-.21V37A24,24,0,0,0,134.49,35.24Z"/><path class="cls-5" d="M126.57,7.74v3.91a28.58,28.58,0,0,1,3,.24A3.86,3.86,0,0,1,131,10.18a6.42,6.42,0,0,1,2.81-.94A21.58,21.58,0,0,0,126.57,7.74Z"/><path class="cls-6" d="M108,25c.29,2.65,2,5,4.1,7a8.72,8.72,0,0,1,.33-5.2c.63-1.86,2.16-3.38,3.78-5,2.23-2.21,4.54-4.5,4.6-7.9,0-.16,0-.31,0-.46C113.37,14.88,107.35,19.64,108,25Z"/><path class="cls-6" d="M136.38,10.52c-.88-.07-3.17-.16-4.4.67a2.56,2.56,0,0,0-.86,1c5.57,1.09,10.11,3.83,12.41,7.39A14.78,14.78,0,0,0,136.38,10.52Z"/><path class="cls-5" d="M143.59,25c.59-5.37-5.43-10.13-12.8-11.59a3.46,3.46,0,0,0,0,.46c.06,3.4,2.37,5.69,4.6,7.9,1.62,1.6,3.15,3.12,3.78,5a8.64,8.64,0,0,1,.33,5.2C141.55,30,143.29,27.66,143.59,25Z"/><path class="cls-5" d="M116.91,35.24a25,25,0,0,0,8,1.8V13c-.89,0-1.77.1-2.63.21a5.85,5.85,0,0,1,0,.73c-.07,3.86-2.67,6.44-5,8.71-1.51,1.5-3,2.9-3.48,4.5C112.05,33,116.86,35.22,116.91,35.24Z"/></svg>