<svg id="Layer_1" data-name="Layer 1" xmlns="http://www.w3.org/2000/svg" viewBox="0 0 329.3 50.98"><defs><style>.cls-1{font-size:40px;fill:#62893c;font-family:BodoniSvtyTwoOSITCTT-Book, "Bodoni 72 Oldstyle";}.cls-2,.cls-4{font-size:30px;}.cls-3,.cls-4{fill:#231f20;}.cls-5{fill:#010101;stroke:#62893c;stroke-miterlimit:10;stroke-width:0.4px;}</style></defs><text class="cls-1" transform="translate(4.23 35.94)">K<tspan class="cls-2" x="26.64" y="0">ARLA</tspan><tspan class="cls-3" x="97.32" y="0" xml:space="preserve">      G</tspan><tspan class="cls-4" x="168.56" y="0">ERGELOVA</tspan></text><path class="cls-5" d="M145.56,24.75,138.43,18l3.82-9.88L129.55,5.7l-7.93,3.48L116,5.37l-9.4,4.17V18.2l-5,7.56,11.69.22-6,6.39,4,9.13,10.25-1.23L133.68,44l-2.12-7.87,8.65-.68ZM115.79,17l5.3-5.39,1.47,6.66ZM110,31.54l4.62-5L117,31.76Zm5.77-5.88,6.19-4.5-3.81,9.52ZM115.64,24l-.37-5.72,6.54,1.23Zm-7.53-13.67,6.63-2.95-.69,8.67ZM113,17l-5,.63V12.2Zm.83,1.24.37,5.85-5.38-5.2Zm-1,6.41-8.68-.16,3.34-5Zm5,8.48,2.73,5.93-8.24,1L109,32.85Zm15.17-8.24L137.56,19l5.24,5Zm5.66,9.4-7.13.51.52-7.31Zm-15.15,5.15,6.75-3L131.63,42ZM130,25.48l.08.09-10.52,5.29,4.22-10.54Zm.53,1.38-.56,7.8-9.91-2.53Zm5.32-7.94-4.62,5.78-6-5Zm-11.79-.44-1.78-8.11,7.1-3.12,7.14,10.28Zm4.51,17.21-6.74,2.94-2.43-5.28Zm4.11-9.45,11-.92-4,8.07Zm7.64-17.18-2.85,7.36-6.37-9.16Zm-24.77,6.21.65-8.09,4.39,3Z"/></svg>