<?xml version="1.0" encoding="utf-8"?>
<!-- Generator: Adobe Illustrator 25.4.1, SVG Export Plug-In . SVG Version: 6.00 Build 0)  -->
<svg version="1.1" id="Layer_1" xmlns="http://www.w3.org/2000/svg" xmlns:xlink="http://www.w3.org/1999/xlink" x="0px" y="0px"
	 viewBox="0 0 329.3 50.98" style="enable-background:new 0 0 329.3 50.98;" xml:space="preserve">
<style type="text/css">
	.st0{fill:#62893C;}
	.st1{font-family:'BodoniSvtyTwoOSITCTT-Book';}
	.st2{font-size:40px;}
	.st3{font-size:30px;}
	.st4{fill:#FFFFFF;}
	.st5{fill:#010101;stroke:#62893C;stroke-width:0.4;stroke-miterlimit:10;}
</style>
<text transform="matrix(1 0 0 1 4.23 35.94)" class="st0 st1 st2">K</text>
<text transform="matrix(1 0 0 1 30.87 35.94)" class="st0 st1 st3">ARLA</text>
<text transform="matrix(1 0 0 1 101.55 35.94)" class="st4 st1 st2">      G</text>
<text transform="matrix(1 0 0 1 172.79 35.94)" class="st4 st1 st3">ERGELOVA</text>
<path class="st5" d="M145.56,24.75L138.43,18l3.82-9.88l-12.7-2.42l-7.93,3.48L116,5.37l-9.4,4.17v8.66l-5,7.56l11.69,0.22l-6,6.39
	l4,9.13l10.25-1.23L133.68,44l-2.12-7.87l8.65-0.68L145.56,24.75z M115.79,17l5.3-5.39l1.47,6.66L115.79,17z M110,31.54l4.62-5
	l2.38,5.22L110,31.54z M115.77,25.66l6.19-4.5l-3.81,9.52L115.77,25.66z M115.64,24l-0.37-5.72l6.54,1.23L115.64,24z M108.11,10.33
	l6.63-2.95l-0.69,8.67L108.11,10.33z M113,17l-5,0.63V12.2L113,17z M113.83,18.24l0.37,5.85l-5.38-5.2L113.83,18.24z M112.83,24.65
	l-8.68-0.16l3.34-5L112.83,24.65z M117.83,33.13l2.73,5.93l-8.24,1L109,32.85L117.83,33.13z M133,24.89l4.56-5.89l5.24,5L133,24.89z
	 M138.66,34.29l-7.13,0.51l0.52-7.31L138.66,34.29z M123.51,39.44l6.75-3l1.37,5.56L123.51,39.44z M130,25.48l0.08,0.09l-10.52,5.29
	l4.22-10.54L130,25.48z M130.53,26.86l-0.56,7.8l-9.91-2.53L130.53,26.86z M135.85,18.92l-4.62,5.78l-6-5L135.85,18.92z
	 M124.06,18.48l-1.78-8.11l7.1-3.12l7.14,10.28L124.06,18.48z M128.57,35.69l-6.74,2.94l-2.43-5.28L128.57,35.69z M132.68,26.24
	l11-0.92l-4,8.07L132.68,26.24z M140.32,9.06l-2.85,7.36l-6.37-9.16L140.32,9.06z M115.55,15.27l0.65-8.09l4.39,3L115.55,15.27z"/>
</svg>
