<?xml version="1.0" encoding="utf-8"?>
<!-- Generator: Adobe Illustrator 25.4.1, SVG Export Plug-In . SVG Version: 6.00 Build 0)  -->
<svg version="1.1" id="Layer_1" xmlns="http://www.w3.org/2000/svg" xmlns:xlink="http://www.w3.org/1999/xlink" x="0px" y="0px"
	 viewBox="0 0 105 46" style="enable-background:new 0 0 105 46;" xml:space="preserve">
<style type="text/css">
	.st0{fill:#E75725;}
	.st1{font-family:'BodoniSvtyTwoOSITCTT-Book';}
	.st2{font-size:40px;}
	.st3{fill:#231F20;}
	.st4{fill:#010101;}
</style>
<text transform="matrix(1 0 0 1 4.23 35.94)" class="st0 st1 st2">K</text>
<text transform="matrix(1 0 0 1 26.6423 35.9406)" class="st3 st1 st2">      G</text>
<path class="st0" d="M44.45,12.48c-0.19-0.4-0.49-0.75-0.86-1c-1.29-0.87-3.69-0.73-4.41-0.66c-3.5,1.91-6.07,5.16-7.14,9
	C34.34,16.33,38.89,13.57,44.45,12.48z"/>
<path class="st4" d="M49.04,8.07c-2.46,0.08-4.9,0.59-7.19,1.5c0.99,0.09,1.95,0.41,2.8,0.94c0.61,0.43,1.1,1.02,1.39,1.71
	c0.98-0.13,1.96-0.21,2.95-0.24V8.07H49.04z"/>
<path class="st4" d="M58.53,35.57c2.95-1.53,4.29-5.03,3.11-8.14c-0.51-1.6-2-3-3.47-4.5c-2.3-2.27-4.9-4.85-5-8.71
	c-0.02-0.24-0.02-0.49,0-0.73c-0.86-0.11-1.73-0.18-2.63-0.21v24.05C53.28,37.2,55.98,36.61,58.53,35.57z"/>
<path class="st0" d="M50.61,8.07v3.91c1,0.03,2,0.11,3,0.24c0.3-0.7,0.8-1.29,1.43-1.71c0.85-0.53,1.81-0.85,2.81-0.94
	C55.54,8.66,53.09,8.15,50.61,8.07z"/>
<path class="st4" d="M32.04,25.33c0.29,2.65,2,5,4.1,7c-0.42-1.73-0.31-3.54,0.33-5.2c0.63-1.86,2.16-3.38,3.78-5
	c2.23-2.21,4.54-4.5,4.6-7.9c0-0.16,0-0.31,0-0.46C37.41,15.21,31.39,19.97,32.04,25.33z"/>
<path class="st4" d="M60.42,10.85c-0.88-0.07-3.17-0.16-4.4,0.67c-0.37,0.25-0.67,0.6-0.86,1c5.57,1.09,10.11,3.83,12.41,7.39
	C66.51,16.05,63.93,12.78,60.42,10.85z"/>
<path class="st0" d="M67.63,25.33c0.59-5.37-5.43-10.13-12.8-11.59c-0.01,0.15-0.01,0.31,0,0.46c0.06,3.4,2.37,5.69,4.6,7.9
	c1.62,1.6,3.15,3.12,3.78,5c0.64,1.66,0.76,3.47,0.33,5.2C65.59,30.33,67.33,27.99,67.63,25.33z"/>
<path class="st0" d="M40.95,35.57c2.55,1.04,5.25,1.64,8,1.8V13.33c-0.89,0-1.77,0.1-2.63,0.21c0.02,0.24,0.02,0.49,0,0.73
	c-0.07,3.86-2.67,6.44-5,8.71c-1.51,1.5-3,2.9-3.48,4.5C36.09,33.33,40.9,35.55,40.95,35.57z"/>
</svg>
