<?xml version="1.0" encoding="utf-8"?>
<!-- Generator: Adobe Illustrator 25.4.1, SVG Export Plug-In . SVG Version: 6.00 Build 0)  -->
<svg version="1.1" id="Layer_1" xmlns="http://www.w3.org/2000/svg" xmlns:xlink="http://www.w3.org/1999/xlink" x="0px" y="0px"
	 viewBox="0 0 117 69.01" style="enable-background:new 0 0 117 69.01;" xml:space="preserve">
<style type="text/css">
	.st0{fill:#62893C;}
	.st1{font-family:'BodoniSvtyTwoOSITCTT-Book';}
	.st2{font-size:40px;}
	.st3{fill:#231F20;}
	.st4{fill:#010101;stroke:#62893C;stroke-width:0.4;stroke-miterlimit:10;}
</style>
<text transform="matrix(1 0 0 1 13.23 47.955)" class="st0 st1 st2">K</text>
<text transform="matrix(1 0 0 1 32.6419 48.4699)" class="st3 st1 st2">      G</text>
<path class="st4" d="M79,36.08l-7.13-6.75l3.82-9.88l-12.7-2.42l-7.93,3.48l-5.62-3.81l-9.4,4.17v8.66l-5,7.56l11.69,0.22l-6,6.39
	l4,9.13l10.25-1.23l12.14,3.73L65,47.46l8.65-0.68L79,36.08z M49.23,28.33l5.3-5.39L56,29.6L49.23,28.33z M43.44,42.87l4.62-5
	l2.38,5.22L43.44,42.87z M49.21,36.99l6.19-4.5l-3.81,9.52L49.21,36.99z M49.08,35.33l-0.37-5.72l6.54,1.23L49.08,35.33z
	 M41.55,21.66l6.63-2.95l-0.69,8.67L41.55,21.66z M46.44,28.33l-5,0.63v-5.43L46.44,28.33z M47.27,29.57l0.37,5.85l-5.38-5.2
	L47.27,29.57z M46.27,35.98l-8.68-0.16l3.34-5L46.27,35.98z M51.27,44.46L54,50.39l-8.24,1l-3.32-7.21L51.27,44.46z M66.44,36.22
	L71,30.33l5.24,5L66.44,36.22z M72.1,45.62l-7.13,0.51l0.52-7.31L72.1,45.62z M56.95,50.77l6.75-3l1.37,5.56L56.95,50.77z
	 M63.44,36.81l0.08,0.09L53,42.19l4.22-10.54L63.44,36.81z M63.97,38.19l-0.56,7.8l-9.91-2.53L63.97,38.19z M69.29,30.25l-4.62,5.78
	l-6-5L69.29,30.25z M57.5,29.81l-1.78-8.11l7.1-3.12l7.14,10.28L57.5,29.81z M62.01,47.02l-6.74,2.94l-2.43-5.28L62.01,47.02z
	 M66.12,37.57l11-0.92l-4,8.07L66.12,37.57z M73.76,20.39l-2.85,7.36l-6.37-9.16L73.76,20.39z M48.99,26.6l0.65-8.09l4.39,3
	L48.99,26.6z"/>
</svg>
