<?xml version="1.0" encoding="iso-8859-1"?>
<!-- Generator: Adobe Illustrator 16.0.0, SVG Export Plug-In . SVG Version: 6.00 Build 0)  -->
<!DOCTYPE svg PUBLIC "-//W3C//DTD SVG 1.1//EN" "http://www.w3.org/Graphics/SVG/1.1/DTD/svg11.dtd">
<svg version="1.1" id="Capa_1" xmlns="http://www.w3.org/2000/svg" xmlns:xlink="http://www.w3.org/1999/xlink" x="0px" y="0px"
	 width="420px" height="420px" viewBox="0 0 420 420" style="enable-background:new 0 0 420 420;" xml:space="preserve">
<g>
	<path d="M420,210.724l-67.957-70.266L388.479,38.32L267.338,13.896l-75.716,35.943l-53.766-39.4L48.189,53.566v89.49L0,221.166
		l111.474,2.265l-56.751,66.013l38.514,94.271l97.789-12.744l115.638,38.591l-20.199-81.358l82.545-6.986L420,210.724z
		 M136.058,130.925l50.522-55.706l14.012,68.871L136.058,130.925z M80.354,280.828l44.043-51.229l23.437,53.546L80.354,280.828z
		 M135.336,220.128l59.112-46.568l-36.422,98.409L135.336,220.128z M134.566,203.145l-3.482-59.133l62.383,12.728L134.566,203.145z
		 M62.802,61.873l63.193-30.395l-6.578,89.546L62.802,61.873z M109.329,130.47l-47.321,6.604V81.028L109.329,130.47z
		 M117.199,143.323l3.559,60.401l-51.346-53.731L117.199,143.323z M107.192,209.533l-82.738-1.604l31.832-51.671L107.192,209.533z
		 M154.54,297.203l26.04,61.191l-78.577,10.241l-30.346-74.28L154.54,297.203z M299.238,212.029l44.498-60.283l50,51.7
		L299.238,212.029z M353.25,309.105l-68.039,5.344l4.945-75.609L353.25,309.105z M208.723,362.306l64.4-30.487l14.07,56.677
		L208.723,362.306z M271.691,218.271l0.756,0.841l-100.353,54.66l40.296-108.877L271.691,218.271z M276.723,232.517l-5.27,80.523
		l-94.578-26.139L276.723,232.517z M327.51,150.457l-44.107,59.761l-57.104-51.396L327.51,150.457z M215.059,145.885l-17.044-83.782
		l67.74-32.158l68.148,106.119L215.059,145.885z M258.038,323.669l-64.27,30.428l-23.237-54.611L258.038,323.669z M297.277,226.082
		l104.854-9.523l-38.512,83.411L297.277,226.082z M370.146,48.586l-27.143,76.079L282.199,29.98L370.146,48.586z M133.88,112.755
		l6.143-83.597l41.857,30.675L133.88,112.755z"/>
</g>
<g>
</g>
<g>
</g>
<g>
</g>
<g>
</g>
<g>
</g>
<g>
</g>
<g>
</g>
<g>
</g>
<g>
</g>
<g>
</g>
<g>
</g>
<g>
</g>
<g>
</g>
<g>
</g>
<g>
</g>
</svg>
