<?xml version="1.0" encoding="iso-8859-1"?>
<!-- Generator: Adobe Illustrator 18.0.0, SVG Export Plug-In . SVG Version: 6.00 Build 0)  -->
<!DOCTYPE svg PUBLIC "-//W3C//DTD SVG 1.1//EN" "http://www.w3.org/Graphics/SVG/1.1/DTD/svg11.dtd">
<svg version="1.1" id="Capa_1" xmlns="http://www.w3.org/2000/svg" xmlns:xlink="http://www.w3.org/1999/xlink" x="0px" y="0px"
	 viewBox="0 0 297 297" style="enable-background:new 0 0 297 297;" xml:space="preserve">
<g>
	<path d="M104.525,44.686c-1.656-3.975-4.014-7.253-7.082-9.797c-10.607-8.794-30.29-7.334-36.21-6.653
		C31.509,49.864,10.077,82.222,2.681,119.573C21.571,83.507,58.868,55.725,104.525,44.686z"/>
	<path d="M141.904,0c-21.123,0.927-41.113,6.283-59.068,15.161c7.63,1.101,16.023,3.768,23.026,9.574
		c5.424,4.497,9.351,10.286,11.785,17.288c7.894-1.308,15.995-2.122,24.256-2.406V0z"/>
	<path d="M220.135,278.718c1.591-0.771,40.152-25.365,25.503-82.477c-4.162-16.226-16.118-30.468-28.503-45.619
		c-18.84-23.051-40.194-49.175-40.73-88.281c-0.035-2.564,0.067-5.021,0.277-7.393c-7.03-1.14-14.238-1.863-21.587-2.134V297
		C178.591,295.969,200.143,288.41,220.135,278.718z"/>
	<path d="M155.096,0v39.617c8.262,0.284,16.363,1.098,24.256,2.406c2.435-7.003,6.362-12.791,11.785-17.288
		c7.003-5.806,15.396-8.473,23.026-9.574C196.209,6.283,176.219,0.927,155.096,0z"/>
	<path d="M2.22,175.029c2.415,26.916,16.718,50.745,33.684,70.421c-3.04-13.307-3.302-30.629,2.735-52.691
		c5.16-18.855,17.718-34.219,31.013-50.485c18.328-22.424,37.28-45.611,37.754-80.113c0.022-1.58-0.014-3.107-0.106-4.581
		C46.772,72.302-2.667,120.559,2.22,175.029z"/>
	<path d="M235.6,28.114c-7.205-0.714-25.977-1.611-36.086,6.812c-3.047,2.539-5.392,5.805-7.039,9.761
		c45.657,11.039,82.954,38.82,101.845,74.887C286.909,82.152,265.41,49.742,235.6,28.114z"/>
	<path d="M294.78,175.029c4.887-54.47-44.552-102.726-105.08-117.449c-0.091,1.474-0.127,3-0.106,4.581
		c0.474,34.502,19.426,57.69,37.754,80.113c13.295,16.266,25.853,31.63,31.013,50.485c6.037,22.062,5.775,39.384,2.735,52.691
		C278.062,225.774,292.366,201.945,294.78,175.029z"/>
	<path d="M75.764,278.718c20.049,9.573,42.644,17.251,66.14,18.282V52.813c-7.349,0.271-14.557,0.994-21.587,2.134
		c0.21,2.373,0.313,4.83,0.277,7.393c-0.536,39.106-21.889,65.23-40.73,88.281c-12.384,15.151-24.269,29.412-28.503,45.619
		C35.868,255.551,75.366,278.528,75.764,278.718z"/>
</g>
<g>
</g>
<g>
</g>
<g>
</g>
<g>
</g>
<g>
</g>
<g>
</g>
<g>
</g>
<g>
</g>
<g>
</g>
<g>
</g>
<g>
</g>
<g>
</g>
<g>
</g>
<g>
</g>
<g>
</g>
</svg>
